<mxfile host="Electron" modified="2024-02-24T03:18:41.226Z" agent="Mozilla/5.0 (Windows NT 10.0; Win64; x64) AppleWebKit/537.36 (KHTML, like Gecko) draw.io/23.1.5 Chrome/120.0.6099.109 Electron/28.1.0 Safari/537.36" etag="LR80JTGmqB_8FQoJtoDL" version="23.1.5" type="device">
  <diagram name="Page-1" id="hwJGP-7LeXRfqxVs9OOH">
    <mxGraphModel dx="892" dy="774" grid="1" gridSize="10" guides="1" tooltips="1" connect="1" arrows="1" fold="1" page="1" pageScale="1" pageWidth="827" pageHeight="1169" math="0" shadow="0">
      <root>
        <mxCell id="0" />
        <mxCell id="1" parent="0" />
        <mxCell id="0I1OTFyVBPVYsNICkLVj-27" value="" style="group" parent="1" vertex="1" connectable="0">
          <mxGeometry x="40" y="40" width="410" height="290" as="geometry" />
        </mxCell>
        <mxCell id="0I1OTFyVBPVYsNICkLVj-11" value="Contacting pattern&#xa;&#xa;How materials flow through and contact each other in the reactor" style="text;whiteSpace=wrap;fontFamily=IBM Plex sans;fontSize=12;fontColor=#0F62FE;labelBackgroundColor=none;" parent="0I1OTFyVBPVYsNICkLVj-27" vertex="1">
          <mxGeometry x="40" y="220" width="180" height="70" as="geometry" />
        </mxCell>
        <mxCell id="0I1OTFyVBPVYsNICkLVj-13" value="Kinetics &#xa;&#xa;How fast things happen.&#xa;" style="text;whiteSpace=wrap;fontFamily=IBM Plex sans;fontSize=12;fontColor=#0F62FE;labelBackgroundColor=none;" parent="0I1OTFyVBPVYsNICkLVj-27" vertex="1">
          <mxGeometry x="255" y="220" width="135" height="60" as="geometry" />
        </mxCell>
        <mxCell id="0I1OTFyVBPVYsNICkLVj-17" value="" style="curved=1;endArrow=blockThin;html=1;rounded=0;strokeColor=#999999;strokeWidth=1;align=center;verticalAlign=middle;fontFamily=Helvetica;fontSize=11;fontColor=default;labelBackgroundColor=default;edgeStyle=orthogonalEdgeStyle;exitX=0.25;exitY=0;exitDx=0;exitDy=0;startArrow=none;startFill=0;endFill=1;" parent="0I1OTFyVBPVYsNICkLVj-27" source="0I1OTFyVBPVYsNICkLVj-13" edge="1">
          <mxGeometry width="50" height="50" relative="1" as="geometry">
            <mxPoint x="190" y="210" as="sourcePoint" />
            <mxPoint x="240" y="160" as="targetPoint" />
            <Array as="points">
              <mxPoint x="290" y="220" />
              <mxPoint x="290" y="200" />
              <mxPoint x="240" y="200" />
            </Array>
          </mxGeometry>
        </mxCell>
        <mxCell id="0I1OTFyVBPVYsNICkLVj-20" style="edgeStyle=orthogonalEdgeStyle;rounded=0;orthogonalLoop=1;jettySize=auto;html=1;exitX=0;exitY=0.5;exitDx=0;exitDy=0;strokeColor=#999999;strokeWidth=1;align=center;verticalAlign=middle;fontFamily=Helvetica;fontSize=11;fontColor=default;labelBackgroundColor=default;endArrow=blockThin;endFill=1;startArrow=none;startFill=0;" parent="0I1OTFyVBPVYsNICkLVj-27" source="0I1OTFyVBPVYsNICkLVj-18" edge="1">
          <mxGeometry relative="1" as="geometry">
            <mxPoint x="90" y="130" as="targetPoint" />
          </mxGeometry>
        </mxCell>
        <mxCell id="0I1OTFyVBPVYsNICkLVj-22" style="edgeStyle=orthogonalEdgeStyle;rounded=0;orthogonalLoop=1;jettySize=auto;html=1;exitX=1;exitY=0.5;exitDx=0;exitDy=0;strokeColor=#999999;strokeWidth=1;align=center;verticalAlign=middle;fontFamily=Helvetica;fontSize=11;fontColor=default;labelBackgroundColor=default;endArrow=blockThin;endFill=1;startArrow=none;startFill=0;" parent="0I1OTFyVBPVYsNICkLVj-27" source="0I1OTFyVBPVYsNICkLVj-18" edge="1">
          <mxGeometry relative="1" as="geometry">
            <mxPoint x="320" y="130" as="targetPoint" />
          </mxGeometry>
        </mxCell>
        <mxCell id="0I1OTFyVBPVYsNICkLVj-18" value="Peformance equation&#xa;Relates input to output" style="text;whiteSpace=wrap;fontFamily=IBM Plex sans;fontSize=12;fontColor=#FFFFFF;labelBackgroundColor=none;align=center;verticalAlign=middle;spacingTop=0;spacing=2;fillColor=#0f62fe;" parent="0I1OTFyVBPVYsNICkLVj-27" vertex="1">
          <mxGeometry x="140" width="140" height="50" as="geometry" />
        </mxCell>
        <mxCell id="0I1OTFyVBPVYsNICkLVj-6" style="edgeStyle=orthogonalEdgeStyle;rounded=0;orthogonalLoop=1;jettySize=auto;html=1;strokeWidth=2;endArrow=blockThin;endFill=1;" parent="0I1OTFyVBPVYsNICkLVj-27" source="0I1OTFyVBPVYsNICkLVj-4" edge="1">
          <mxGeometry relative="1" as="geometry">
            <mxPoint x="350" y="130" as="targetPoint" />
          </mxGeometry>
        </mxCell>
        <mxCell id="0I1OTFyVBPVYsNICkLVj-7" style="edgeStyle=orthogonalEdgeStyle;rounded=0;orthogonalLoop=1;jettySize=auto;html=1;startArrow=blockThin;startFill=1;endArrow=none;endFill=0;strokeWidth=2;" parent="0I1OTFyVBPVYsNICkLVj-27" source="0I1OTFyVBPVYsNICkLVj-5" edge="1">
          <mxGeometry relative="1" as="geometry">
            <mxPoint x="60" y="130" as="targetPoint" />
          </mxGeometry>
        </mxCell>
        <mxCell id="0I1OTFyVBPVYsNICkLVj-8" value="Input" style="text;html=1;align=center;verticalAlign=middle;whiteSpace=wrap;rounded=0;fontFamily=IBM Plex sans;fillColor=none;fontColor=#0F62FE;labelBackgroundColor=none;" parent="0I1OTFyVBPVYsNICkLVj-27" vertex="1">
          <mxGeometry y="115" width="60" height="30" as="geometry" />
        </mxCell>
        <mxCell id="0I1OTFyVBPVYsNICkLVj-9" value="Output" style="text;html=1;align=center;verticalAlign=middle;whiteSpace=wrap;rounded=0;fontFamily=IBM Plex sans;fontSize=12;fontColor=#0F62FE;labelBackgroundColor=none;" parent="0I1OTFyVBPVYsNICkLVj-27" vertex="1">
          <mxGeometry x="350" y="115" width="60" height="30" as="geometry" />
        </mxCell>
        <mxCell id="0I1OTFyVBPVYsNICkLVj-16" value="" style="curved=1;endArrow=blockThin;html=1;rounded=0;strokeColor=#999999;strokeWidth=1;align=center;verticalAlign=middle;fontFamily=Helvetica;fontSize=11;fontColor=default;labelBackgroundColor=default;edgeStyle=orthogonalEdgeStyle;exitX=0.5;exitY=0;exitDx=0;exitDy=0;startArrow=none;startFill=0;endFill=1;" parent="0I1OTFyVBPVYsNICkLVj-27" source="0I1OTFyVBPVYsNICkLVj-11" edge="1">
          <mxGeometry width="50" height="50" relative="1" as="geometry">
            <mxPoint x="120" y="210" as="sourcePoint" />
            <mxPoint x="170" y="160" as="targetPoint" />
            <Array as="points">
              <mxPoint x="130" y="190" />
              <mxPoint x="170" y="190" />
            </Array>
          </mxGeometry>
        </mxCell>
        <mxCell id="0I1OTFyVBPVYsNICkLVj-24" value="" style="group;rounded=0;align=center;verticalAlign=middle;fontFamily=IBM Plex sans;fontSize=12;fontColor=#0F62FE;fillColor=none;gradientColor=none;labelBackgroundColor=none;" parent="0I1OTFyVBPVYsNICkLVj-27" vertex="1" connectable="0">
          <mxGeometry x="120" y="90" width="180" height="80" as="geometry" />
        </mxCell>
        <mxCell id="0I1OTFyVBPVYsNICkLVj-1" value="Reactor" style="rounded=0;whiteSpace=wrap;html=1;strokeWidth=2;fontFamily=IBM Plex sans;align=center;verticalAlign=middle;fontSize=12;fontColor=#0F62FE;fillColor=none;gradientColor=none;labelBackgroundColor=none;" parent="0I1OTFyVBPVYsNICkLVj-24" vertex="1">
          <mxGeometry x="30" y="10" width="120" height="60" as="geometry" />
        </mxCell>
        <mxCell id="0I1OTFyVBPVYsNICkLVj-2" value="" style="rounded=0;whiteSpace=wrap;html=1;strokeWidth=2;align=center;verticalAlign=middle;fontFamily=IBM Plex sans;fontSize=12;fontColor=#0F62FE;fillColor=none;gradientColor=none;labelBackgroundColor=none;" parent="0I1OTFyVBPVYsNICkLVj-24" vertex="1">
          <mxGeometry x="20" width="10" height="80" as="geometry" />
        </mxCell>
        <mxCell id="0I1OTFyVBPVYsNICkLVj-3" value="" style="rounded=0;whiteSpace=wrap;html=1;strokeWidth=2;align=center;verticalAlign=middle;fontFamily=IBM Plex sans;fontSize=12;fontColor=#0F62FE;fillColor=none;gradientColor=none;labelBackgroundColor=none;" parent="0I1OTFyVBPVYsNICkLVj-24" vertex="1">
          <mxGeometry x="150" width="10" height="80" as="geometry" />
        </mxCell>
        <mxCell id="0I1OTFyVBPVYsNICkLVj-4" value="" style="shape=or;whiteSpace=wrap;html=1;strokeWidth=2;rounded=0;align=center;verticalAlign=middle;fontFamily=IBM Plex sans;fontSize=12;fontColor=#0F62FE;fillColor=none;gradientColor=none;labelBackgroundColor=none;" parent="0I1OTFyVBPVYsNICkLVj-24" vertex="1">
          <mxGeometry x="160" y="10" width="20" height="60" as="geometry" />
        </mxCell>
        <mxCell id="0I1OTFyVBPVYsNICkLVj-5" value="" style="shape=or;whiteSpace=wrap;html=1;rotation=-180;strokeWidth=2;rounded=0;align=center;verticalAlign=middle;fontFamily=IBM Plex sans;fontSize=12;fontColor=#0F62FE;fillColor=none;gradientColor=none;labelBackgroundColor=none;" parent="0I1OTFyVBPVYsNICkLVj-24" vertex="1">
          <mxGeometry y="10" width="20" height="60" as="geometry" />
        </mxCell>
      </root>
    </mxGraphModel>
  </diagram>
</mxfile>
